<?xml version="1.0" encoding="UTF-8" standalone="no"?>
<!-- Created with Inkscape (http://www.inkscape.org/) -->
<svg
   xmlns:dc="http://purl.org/dc/elements/1.1/"
   xmlns:cc="http://web.resource.org/cc/"
   xmlns:rdf="http://www.w3.org/1999/02/22-rdf-syntax-ns#"
   xmlns:svg="http://www.w3.org/2000/svg"
   xmlns="http://www.w3.org/2000/svg"
   xmlns:xlink="http://www.w3.org/1999/xlink"
   xmlns:sodipodi="http://sodipodi.sourceforge.net/DTD/sodipodi-0.dtd"
   xmlns:inkscape="http://www.inkscape.org/namespaces/inkscape"
   height="1108.96"
   width="1179.16"
   id="svg3773"
   sodipodi:version="0.32"
   inkscape:version="0.44.1"
   sodipodi:docbase="D:\dokumenty\kot\do wiki\upload"
   sodipodi:docname="bug blank.svg"
   version="1.0">
  <defs
     id="defs3775">
    <linearGradient
       id="linearGradient15481">
      <stop
         style="stop-color:#ff902c;stop-opacity:1"
         offset="0"
         id="stop15483" />
      <stop
         style="stop-color:#ffbe57;stop-opacity:1;"
         offset="1"
         id="stop15485" />
    </linearGradient>
    <linearGradient
       inkscape:collect="always"
       xlink:href="#linearGradient15481"
       id="linearGradient15487"
       x1="146.65625"
       y1="432.35938"
       x2="479.0625"
       y2="432.35938"
       gradientUnits="userSpaceOnUse"
       gradientTransform="matrix(1.25537,0,0,1.25537,-5.986354,-3.566797)" />
    <linearGradient
       inkscape:collect="always"
       xlink:href="#linearGradient15481"
       id="linearGradient16388"
       x1="157.28001"
       y1="643.14075"
       x2="469.95703"
       y2="643.14075"
       gradientUnits="userSpaceOnUse"
       gradientTransform="matrix(1.25537,0,0,1.25537,-5.986354,-3.566797)" />
    <linearGradient
       inkscape:collect="always"
       xlink:href="#linearGradient15481"
       id="linearGradient17281"
       x1="411.69394"
       y1="886.43359"
       x2="511.08469"
       y2="859.42371"
       gradientUnits="userSpaceOnUse"
       gradientTransform="matrix(1.25537,0,0,1.25537,-5.986354,-3.566797)" />
    <linearGradient
       inkscape:collect="always"
       xlink:href="#linearGradient15481"
       id="linearGradient17283"
       x1="160.09082"
       y1="875.10272"
       x2="210.48468"
       y2="859.42371"
       gradientUnits="userSpaceOnUse"
       gradientTransform="matrix(1.25537,0,0,1.25537,-5.986354,-3.566797)" />
    <linearGradient
       inkscape:collect="always"
       xlink:href="#linearGradient15481"
       id="linearGradient18176"
       x1="538.30878"
       y1="683.35327"
       x2="636.84161"
       y2="683.35327"
       gradientUnits="userSpaceOnUse"
       gradientTransform="matrix(1.25537,0,0,1.25537,-5.986354,-3.566797)" />
    <linearGradient
       inkscape:collect="always"
       xlink:href="#linearGradient15481"
       id="linearGradient18178"
       x1="507.71875"
       y1="436.34375"
       x2="607.1875"
       y2="436.34375"
       gradientUnits="userSpaceOnUse"
       gradientTransform="matrix(1.25537,0,0,1.25537,-5.986354,-3.566797)" />
    <linearGradient
       inkscape:collect="always"
       xlink:href="#linearGradient15481"
       id="linearGradient18180"
       x1="43.770226"
       y1="355.86588"
       x2="140.50378"
       y2="355.86588"
       gradientUnits="userSpaceOnUse"
       gradientTransform="matrix(1.25537,0,0,1.25537,-5.986354,-3.566797)" />
    <linearGradient
       inkscape:collect="always"
       xlink:href="#linearGradient15481"
       id="linearGradient18182"
       x1="23.441912"
       y1="707.16461"
       x2="120.17547"
       y2="707.16461"
       gradientUnits="userSpaceOnUse"
       gradientTransform="matrix(1.25537,0,0,1.25537,-5.986354,-3.566797)" />
    <linearGradient
       inkscape:collect="always"
       xlink:href="#linearGradient15481"
       id="linearGradient19075"
       x1="235.78125"
       y1="520.98438"
       x2="386.8125"
       y2="520.98438"
       gradientUnits="userSpaceOnUse"
       gradientTransform="matrix(1.25537,0,0,1.25537,-5.986354,-3.566797)" />
    <linearGradient
       inkscape:collect="always"
       xlink:href="#linearGradient15481"
       id="linearGradient23607"
       gradientUnits="userSpaceOnUse"
       gradientTransform="matrix(1.25537,0,0,1.25537,-5.986354,-3.566797)"
       x1="157.28001"
       y1="643.14075"
       x2="469.95703"
       y2="643.14075" />
    <linearGradient
       inkscape:collect="always"
       xlink:href="#linearGradient15481"
       id="linearGradient23609"
       gradientUnits="userSpaceOnUse"
       gradientTransform="matrix(1.25537,0,0,1.25537,-5.986354,-3.566797)"
       x1="146.65625"
       y1="432.35938"
       x2="479.0625"
       y2="432.35938" />
    <linearGradient
       inkscape:collect="always"
       xlink:href="#linearGradient15481"
       id="linearGradient23611"
       gradientUnits="userSpaceOnUse"
       gradientTransform="matrix(1.25537,0,0,1.25537,-5.986354,-3.566797)"
       x1="160.09082"
       y1="875.10272"
       x2="210.48468"
       y2="859.42371" />
    <linearGradient
       inkscape:collect="always"
       xlink:href="#linearGradient15481"
       id="linearGradient23613"
       gradientUnits="userSpaceOnUse"
       gradientTransform="matrix(1.25537,0,0,1.25537,-5.986354,-3.566797)"
       x1="411.69394"
       y1="886.43359"
       x2="511.08469"
       y2="859.42371" />
    <linearGradient
       inkscape:collect="always"
       xlink:href="#linearGradient15481"
       id="linearGradient23615"
       gradientUnits="userSpaceOnUse"
       gradientTransform="matrix(1.25537,0,0,1.25537,-5.986354,-3.566797)"
       x1="507.71875"
       y1="436.34375"
       x2="607.1875"
       y2="436.34375" />
    <linearGradient
       inkscape:collect="always"
       xlink:href="#linearGradient15481"
       id="linearGradient23617"
       gradientUnits="userSpaceOnUse"
       gradientTransform="matrix(1.25537,0,0,1.25537,-5.986354,-3.566797)"
       x1="43.770226"
       y1="355.86588"
       x2="140.50378"
       y2="355.86588" />
    <linearGradient
       inkscape:collect="always"
       xlink:href="#linearGradient15481"
       id="linearGradient23619"
       gradientUnits="userSpaceOnUse"
       gradientTransform="matrix(1.25537,0,0,1.25537,-5.986354,-3.566797)"
       x1="23.441912"
       y1="707.16461"
       x2="120.17547"
       y2="707.16461" />
    <linearGradient
       inkscape:collect="always"
       xlink:href="#linearGradient15481"
       id="linearGradient23621"
       gradientUnits="userSpaceOnUse"
       gradientTransform="matrix(1.25537,0,0,1.25537,-5.986354,-3.566797)"
       x1="538.30878"
       y1="683.35327"
       x2="636.84161"
       y2="683.35327" />
    <linearGradient
       inkscape:collect="always"
       xlink:href="#linearGradient15481"
       id="linearGradient23623"
       gradientUnits="userSpaceOnUse"
       gradientTransform="matrix(1.25537,0,0,1.25537,-5.986354,-3.566797)"
       x1="235.78125"
       y1="520.98438"
       x2="386.8125"
       y2="520.98438" />
    <linearGradient
       inkscape:collect="always"
       xlink:href="#linearGradient15481"
       id="linearGradient23635"
       gradientUnits="userSpaceOnUse"
       gradientTransform="matrix(1.915821,0,0,1.915821,-19.47011,-205.5938)"
       x1="235.78125"
       y1="520.98438"
       x2="386.8125"
       y2="520.98438" />
    <linearGradient
       inkscape:collect="always"
       xlink:href="#linearGradient15481"
       id="linearGradient23639"
       gradientUnits="userSpaceOnUse"
       gradientTransform="matrix(1.915821,0,0,1.915821,-19.47011,-205.5938)"
       x1="538.30878"
       y1="683.35327"
       x2="636.84161"
       y2="683.35327" />
    <linearGradient
       inkscape:collect="always"
       xlink:href="#linearGradient15481"
       id="linearGradient23642"
       gradientUnits="userSpaceOnUse"
       gradientTransform="matrix(1.915821,0,0,1.915821,-19.47011,-205.5938)"
       x1="23.441912"
       y1="707.16461"
       x2="120.17547"
       y2="707.16461" />
    <linearGradient
       inkscape:collect="always"
       xlink:href="#linearGradient15481"
       id="linearGradient23645"
       gradientUnits="userSpaceOnUse"
       gradientTransform="matrix(1.915821,0,0,1.915821,-19.47011,-205.5938)"
       x1="43.770226"
       y1="355.86588"
       x2="140.50378"
       y2="355.86588" />
    <linearGradient
       inkscape:collect="always"
       xlink:href="#linearGradient15481"
       id="linearGradient23648"
       gradientUnits="userSpaceOnUse"
       gradientTransform="matrix(1.915821,0,0,1.915821,-19.47011,-205.5938)"
       x1="507.71875"
       y1="436.34375"
       x2="607.1875"
       y2="436.34375" />
    <linearGradient
       inkscape:collect="always"
       xlink:href="#linearGradient15481"
       id="linearGradient23651"
       gradientUnits="userSpaceOnUse"
       gradientTransform="matrix(1.915821,0,0,1.915821,-19.47011,-205.5938)"
       x1="411.69394"
       y1="886.43359"
       x2="511.08469"
       y2="859.42371" />
    <linearGradient
       inkscape:collect="always"
       xlink:href="#linearGradient15481"
       id="linearGradient23654"
       gradientUnits="userSpaceOnUse"
       gradientTransform="matrix(1.915821,0,0,1.915821,-19.47011,-205.5938)"
       x1="160.09082"
       y1="875.10272"
       x2="210.48468"
       y2="859.42371" />
    <linearGradient
       inkscape:collect="always"
       xlink:href="#linearGradient15481"
       id="linearGradient23664"
       gradientUnits="userSpaceOnUse"
       gradientTransform="matrix(1.915822,0,0,1.915822,-19.47011,-205.5938)"
       x1="146.65625"
       y1="432.35938"
       x2="479.0625"
       y2="432.35938" />
    <linearGradient
       inkscape:collect="always"
       xlink:href="#linearGradient15481"
       id="linearGradient23668"
       gradientUnits="userSpaceOnUse"
       gradientTransform="matrix(1.915821,0,0,1.915821,-19.47011,-205.5938)"
       x1="157.28001"
       y1="643.14075"
       x2="469.95703"
       y2="643.14075" />
    <linearGradient
       inkscape:collect="always"
       xlink:href="#linearGradient15481"
       id="linearGradient64280"
       gradientUnits="userSpaceOnUse"
       gradientTransform="matrix(1.915821,0,0,1.915821,-19.47011,-205.5938)"
       x1="157.28001"
       y1="643.14075"
       x2="469.95703"
       y2="643.14075" />
    <linearGradient
       inkscape:collect="always"
       xlink:href="#linearGradient15481"
       id="linearGradient64282"
       gradientUnits="userSpaceOnUse"
       gradientTransform="matrix(1.915822,0,0,1.915822,-19.47011,-205.5938)"
       x1="146.65625"
       y1="432.35938"
       x2="479.0625"
       y2="432.35938" />
    <linearGradient
       inkscape:collect="always"
       xlink:href="#linearGradient15481"
       id="linearGradient64284"
       gradientUnits="userSpaceOnUse"
       gradientTransform="matrix(1.915821,0,0,1.915821,-19.47011,-205.5938)"
       x1="160.09082"
       y1="875.10272"
       x2="210.48468"
       y2="859.42371" />
    <linearGradient
       inkscape:collect="always"
       xlink:href="#linearGradient15481"
       id="linearGradient64286"
       gradientUnits="userSpaceOnUse"
       gradientTransform="matrix(1.915821,0,0,1.915821,-19.47011,-205.5938)"
       x1="411.69394"
       y1="886.43359"
       x2="511.08469"
       y2="859.42371" />
    <linearGradient
       inkscape:collect="always"
       xlink:href="#linearGradient15481"
       id="linearGradient64288"
       gradientUnits="userSpaceOnUse"
       gradientTransform="matrix(1.915821,0,0,1.915821,-19.47011,-205.5938)"
       x1="507.71875"
       y1="436.34375"
       x2="607.1875"
       y2="436.34375" />
    <linearGradient
       inkscape:collect="always"
       xlink:href="#linearGradient15481"
       id="linearGradient64290"
       gradientUnits="userSpaceOnUse"
       gradientTransform="matrix(1.915821,0,0,1.915821,-19.47011,-205.5938)"
       x1="43.770226"
       y1="355.86588"
       x2="140.50378"
       y2="355.86588" />
    <linearGradient
       inkscape:collect="always"
       xlink:href="#linearGradient15481"
       id="linearGradient64292"
       gradientUnits="userSpaceOnUse"
       gradientTransform="matrix(1.915821,0,0,1.915821,-19.47011,-205.5938)"
       x1="23.441912"
       y1="707.16461"
       x2="120.17547"
       y2="707.16461" />
    <linearGradient
       inkscape:collect="always"
       xlink:href="#linearGradient15481"
       id="linearGradient64294"
       gradientUnits="userSpaceOnUse"
       gradientTransform="matrix(1.915821,0,0,1.915821,-19.47011,-205.5938)"
       x1="538.30878"
       y1="683.35327"
       x2="636.84161"
       y2="683.35327" />
    <linearGradient
       inkscape:collect="always"
       xlink:href="#linearGradient15481"
       id="linearGradient64296"
       gradientUnits="userSpaceOnUse"
       gradientTransform="matrix(1.915821,0,0,1.915821,-19.47011,-205.5938)"
       x1="235.78125"
       y1="520.98438"
       x2="386.8125"
       y2="520.98438" />
  </defs>
  <sodipodi:namedview
     id="base"
     pagecolor="#ffffff"
     bordercolor="#666666"
     borderopacity="1.0"
     inkscape:pageopacity="0.0"
     inkscape:pageshadow="2"
     inkscape:cx="587.58219"
     inkscape:cy="556.48046"
     inkscape:zoom="0.43983532"
     inkscape:document-units="px"
     inkscape:current-layer="layer1"
     showguides="true"
     inkscape:guide-bbox="true"
     inkscape:window-width="1024"
     inkscape:window-height="682"
     inkscape:window-x="-4"
     inkscape:window-y="-4"
     width="1179.16px"
     height="1108.96px" />
  <metadata
     id="metadata3778">
    <rdf:RDF>
      <cc:Work
         rdf:about="">
        <dc:format>image/svg+xml</dc:format>
        <dc:type
           rdf:resource="http://purl.org/dc/dcmitype/StillImage" />
      </cc:Work>
    </rdf:RDF>
  </metadata>
  <g
     inkscape:groupmode="layer"
     inkscape:label="Warstwa 1"
     id="layer1"
     transform="translate(-25.44041,-387.6959)">
    <g
       id="g64255"
       transform="translate(1.997824,2.000475)">
      <path
         id="path20849"
         d="M 367.27156,533.92138 L 795.31573,533.92138 L 810.33483,612.77164 C 810.33483,612.77164 693.93684,667.21586 613.20921,667.21586 C 532.48159,667.21586 284.66654,712.27312 367.27156,533.92138 z "
         style="color:black;fill:white;fill-opacity:1;fill-rule:nonzero;stroke:none;stroke-width:1;stroke-linecap:butt;stroke-linejoin:miter;marker:none;marker-start:none;marker-mid:none;marker-end:none;stroke-miterlimit:4;stroke-dasharray:none;stroke-dashoffset:0;stroke-opacity:1;visibility:visible;display:inline;overflow:visible" />
      <path
         transform="matrix(1.915822,0,0,1.915822,202.032,-210.462)"
         sodipodi:type="arc"
         style="fill:black;fill-opacity:1;stroke:none;stroke-width:1;stroke-linejoin:miter;stroke-miterlimit:4;stroke-dasharray:none;stroke-dashoffset:0;stroke-opacity:1"
         id="path10142"
         sodipodi:cx="252.51579"
         sodipodi:cy="418.69046"
         sodipodi:rx="16.199127"
         sodipodi:ry="15.246237"
         d="M 268.71492 418.69046 A 16.199127 15.246237 0 1 1  236.31667,418.69046 A 16.199127 15.246237 0 1 1  268.71492 418.69046 z" />
      <path
         transform="matrix(1.915822,0,0,1.915822,-19.47011,-205.5938)"
         d="M 478.57143 432.36218 A 165.71428 95.714287 0 1 1  147.14287,432.36218 A 165.71428 95.714287 0 1 1  478.57143 432.36218 z"
         sodipodi:ry="95.714287"
         sodipodi:rx="165.71428"
         sodipodi:cy="432.36218"
         sodipodi:cx="312.85715"
         id="path4761"
         style="fill:none;fill-opacity:1;stroke:black;stroke-width:1;stroke-linejoin:miter;stroke-miterlimit:4;stroke-dasharray:none;stroke-dashoffset:0;stroke-opacity:1"
         sodipodi:type="arc" />
      <path
         sodipodi:nodetypes="ccss"
         id="path4767"
         d="M 293.90356,1097.5851 C 293.90356,1097.5851 256.95556,1175.5863 261.06091,1305.5885 C 261.06091,1305.5885 110.25838,1167.3757 178.68058,942.95088 C 207.65742,847.90684 276.68912,783.7875 346.65212,741.44603 L 389.69465,756.84249 L 293.90356,1097.5851 z "
         style="color:black;fill:#b9681f;fill-opacity:1;fill-rule:nonzero;stroke:black;stroke-width:1.91582155;stroke-linecap:butt;stroke-linejoin:miter;marker:none;marker-start:none;marker-mid:none;marker-end:none;stroke-miterlimit:4;stroke-dasharray:none;stroke-dashoffset:0;stroke-opacity:1;visibility:visible;display:inline;overflow:visible" />
      <path
         style="color:black;fill:#b9681f;fill-opacity:1;fill-rule:nonzero;stroke:black;stroke-width:1.91582155;stroke-linecap:butt;stroke-linejoin:miter;marker:none;marker-start:none;marker-mid:none;marker-end:none;stroke-miterlimit:4;stroke-dasharray:none;stroke-dashoffset:0;stroke-opacity:1;visibility:visible;display:inline;overflow:visible"
         d="M 870.05382,1097.5851 C 870.05382,1097.5851 907.00182,1175.5863 902.89648,1305.5885 C 902.89648,1305.5885 1053.699,1167.3757 985.27682,942.95088 C 956.29996,847.90684 887.26826,783.7875 817.30528,741.44603 L 774.26272,756.84249 L 870.05382,1097.5851 z "
         id="path4796"
         sodipodi:nodetypes="ccss" />
      <path
         sodipodi:nodetypes="csczcsc"
         d="M 788.05832,758.05449 C 788.05832,758.05449 889.69413,883.56524 879.16008,1026.7677 C 870.43933,1145.3197 853.60214,1159.4255 853.60214,1159.4255 C 853.60214,1159.4255 806.13742,1296.2528 581.36701,1295.0357 C 357.81369,1293.8187 309.13192,1159.4255 309.13192,1159.4255 C 309.13192,1159.4255 292.29473,1145.3197 283.57398,1026.7677 C 273.03992,883.56524 374.67573,758.05449 374.67573,758.05449 L 788.05832,758.05449 z "
         style="color:black;fill:url(#linearGradient64280);fill-opacity:1;fill-rule:nonzero;stroke:black;stroke-width:1.91582155;stroke-linecap:butt;stroke-linejoin:miter;marker:none;marker-start:none;marker-mid:none;marker-end:none;stroke-miterlimit:4;stroke-dashoffset:0;stroke-opacity:1;visibility:visible;display:inline;overflow:visible"
         id="path4776" />
      <path
         transform="matrix(1.915822,0,0,1.915822,-19.47011,-205.5938)"
         d="M 268.71492 418.69046 A 16.199127 15.246237 0 1 1  236.31667,418.69046 A 16.199127 15.246237 0 1 1  268.71492 418.69046 z"
         sodipodi:ry="15.246237"
         sodipodi:rx="16.199127"
         sodipodi:cy="418.69046"
         sodipodi:cx="252.51579"
         id="path4798"
         style="fill:black;fill-opacity:1;stroke:none;stroke-width:1;stroke-linejoin:miter;stroke-miterlimit:4;stroke-dasharray:none;stroke-dashoffset:0;stroke-opacity:1"
         sodipodi:type="arc" />
      <path
         sodipodi:nodetypes="cssssscccssccsscc"
         id="path8355"
         d="M 579.8827,439.3795 C 404.6343,439.3795 262.45501,521.53847 262.45501,622.75955 C 262.45501,699.65255 344.50304,765.51074 460.7677,792.72643 C 497.55251,801.33717 537.76246,789.18323 579.8827,789.18325 C 616.21788,789.18325 651.1341,802.55045 683.65774,796.05321 C 807.99896,771.2136 897.37029,702.9939 897.37026,622.75955 C 897.37026,521.53847 755.1311,439.37951 579.8827,439.3795 z M 386.92354,557.50187 C 386.92354,557.50189 553.65989,595.39922 553.65989,595.39922 C 553.65991,627.70196 511.26078,653.95152 459.00633,653.95152 C 406.7519,653.95149 364.35277,627.70196 364.35277,595.39922 C 364.35277,580.93425 372.83971,567.71856 386.92354,557.50187 z M 765.95686,541.6554 C 780.0407,551.8721 789.1862,565.74632 789.1862,580.21132 C 789.1862,612.51405 750.44271,632.59707 712.79281,632.59705 C 660.53837,632.59705 625.99021,618.60107 618.07938,587.51538 C 618.07938,587.51538 765.95685,541.6554 765.95686,541.6554 z "
         style="fill:url(#linearGradient64282);fill-opacity:1;stroke:none;stroke-width:1;stroke-linejoin:miter;stroke-miterlimit:4;stroke-dasharray:none;stroke-dashoffset:0;stroke-opacity:1" />
      <path
         sodipodi:nodetypes="ccczccz"
         d="M 564.71126,569.15894 C 709.53956,569.15894 840.98038,470.57832 840.98038,470.57832 L 811.77132,429.1988 C 811.77132,429.1988 703.45434,518.04305 564.71126,518.04305 C 427.18524,518.04305 327.38759,435.28402 327.38759,435.28402 L 298.17851,476.66354 C 298.17851,476.66354 421.10002,569.15894 564.71126,569.15894 z "
         style="color:black;fill:black;fill-opacity:1;fill-rule:nonzero;stroke:none;stroke-width:1;stroke-linecap:butt;stroke-linejoin:miter;marker:none;marker-start:none;marker-mid:none;marker-end:none;stroke-miterlimit:4;stroke-dashoffset:0;stroke-opacity:1;visibility:visible;display:inline;overflow:visible"
         id="path10144" />
      <path
         sodipodi:nodetypes="ccc"
         id="path11042"
         d="M 400.06286,925.43737 L 254.19446,733.95821 L 181.04514,531.72181"
         style="color:black;fill:none;fill-opacity:1;fill-rule:nonzero;stroke:#633f12;stroke-width:45.97971725;stroke-linecap:butt;stroke-linejoin:miter;marker:none;marker-start:none;marker-mid:none;marker-end:none;stroke-miterlimit:4;stroke-dasharray:none;stroke-dashoffset:0;stroke-opacity:1;visibility:visible;display:inline;overflow:visible" />
      <path
         id="path11044"
         d="M 412.54127,1085.9356 L 158.67005,969.75727 L 119.94392,1072.1663"
         style="color:black;fill:none;fill-opacity:1;fill-rule:nonzero;stroke:#633f12;stroke-width:45.97971725;stroke-linecap:butt;stroke-linejoin:miter;marker:none;marker-start:none;marker-mid:none;marker-end:none;stroke-miterlimit:4;stroke-dasharray:none;stroke-dashoffset:0;stroke-opacity:1;visibility:visible;display:inline;overflow:visible" />
      <path
         id="path11046"
         d="M 747.30708,1088.5174 L 1003.76,971.47842 L 1076.9094,1044.6278"
         style="color:black;fill:none;fill-opacity:1;fill-rule:nonzero;stroke:#633f12;stroke-width:45.97971725;stroke-linecap:butt;stroke-linejoin:miter;marker:none;marker-start:none;marker-mid:none;marker-end:none;stroke-miterlimit:4;stroke-dasharray:none;stroke-dashoffset:0;stroke-opacity:1;visibility:visible;display:inline;overflow:visible" />
      <path
         id="path11048"
         d="M 747.30708,954.26682 L 1002.0389,837.22787 L 1033.0198,694.37152"
         style="color:black;fill:none;fill-opacity:1;fill-rule:nonzero;stroke:#633f12;stroke-width:45.97971725;stroke-linecap:butt;stroke-linejoin:miter;marker:none;marker-start:none;marker-mid:none;marker-end:none;stroke-miterlimit:4;stroke-dasharray:none;stroke-dashoffset:0;stroke-opacity:1;visibility:visible;display:inline;overflow:visible" />
      <path
         id="path11050"
         d="M 674.15772,1178.0177 L 784.31203,1428.4468"
         style="color:black;fill:none;fill-opacity:1;fill-rule:nonzero;stroke:#633f12;stroke-width:45.97971725;stroke-linecap:butt;stroke-linejoin:miter;marker:none;marker-start:none;marker-mid:none;marker-end:none;stroke-miterlimit:4;stroke-dasharray:none;stroke-dashoffset:0;stroke-opacity:1;visibility:visible;display:inline;overflow:visible" />
      <path
         id="path11052"
         d="M 474.50307,1159.085 L 366.06994,1442.216"
         style="color:black;fill:none;fill-opacity:1;fill-rule:nonzero;stroke:#633f12;stroke-width:45.97971725;stroke-linecap:butt;stroke-linejoin:miter;marker:none;marker-start:none;marker-mid:none;marker-end:none;stroke-miterlimit:4;stroke-dasharray:none;stroke-dashoffset:0;stroke-opacity:1;visibility:visible;display:inline;overflow:visible" />
      <path
         id="path4765"
         d="M 183.05961,1491.697 L 434.8533,1491.697 C 434.8533,1491.697 448.53773,1383.5899 337.69376,1390.4322 C 226.84981,1397.2743 204.95471,1434.2223 204.95471,1434.2223 C 204.95471,1434.2223 183.05961,1453.3805 183.05961,1491.697 z "
         style="color:black;fill:url(#linearGradient64284);fill-opacity:1;fill-rule:nonzero;stroke:black;stroke-width:1.91582155;stroke-linecap:butt;stroke-linejoin:miter;marker:none;marker-start:none;marker-mid:none;marker-end:none;stroke-miterlimit:4;stroke-dasharray:none;stroke-dashoffset:0;stroke-opacity:1;visibility:visible;display:inline;overflow:visible" />
      <path
         style="color:black;fill:url(#linearGradient64286);fill-opacity:1;fill-rule:nonzero;stroke:black;stroke-width:1.91582155;stroke-linecap:butt;stroke-linejoin:miter;marker:none;marker-start:none;marker-mid:none;marker-end:none;stroke-miterlimit:4;stroke-dasharray:none;stroke-dashoffset:0;stroke-opacity:1;visibility:visible;display:inline;overflow:visible"
         d="M 958.71903,1491.697 L 706.92535,1491.697 C 706.92535,1491.697 693.24092,1383.5899 804.08488,1390.4322 C 914.92883,1397.2743 936.82393,1434.2223 936.82393,1434.2223 C 936.82393,1434.2223 958.71903,1453.3805 958.71903,1491.697 z "
         id="path11036" />
      <path
         id="path4783"
         d="M 982.50458,555.28671 C 965.02861,571.19476 954.18634,593.34177 954.18634,617.85024 C 954.18634,666.22047 996.41551,705.43922 1048.4807,705.43922 C 1100.5459,705.43922 1142.8348,666.22047 1142.8349,617.85024 C 1142.8349,602.68772 1138.6448,588.3847 1131.34,575.94165 C 1118.1644,604.3921 1091.2904,623.89706 1060.275,623.89706 C 1022.2052,623.89706 990.40598,594.53372 982.50458,555.28671 z "
         style="fill:url(#linearGradient64288);fill-opacity:1;stroke:black;stroke-width:1.91582155;stroke-linejoin:miter;stroke-miterlimit:4;stroke-dasharray:none;stroke-dashoffset:0;stroke-opacity:1" />
      <path
         style="fill:url(#linearGradient64290);fill-opacity:1;stroke:black;stroke-width:1.91582155;stroke-linejoin:miter;stroke-miterlimit:4;stroke-dasharray:none;stroke-dashoffset:0;stroke-opacity:1"
         d="M 66.377745,466.38359 C 62.828801,489.74768 68.362118,513.7774 83.803051,532.81007 C 114.27747,570.3732 171.78037,574.22412 212.21289,541.42178 C 252.64542,508.61947 260.77726,451.52008 230.30289,413.9569 C 220.75012,402.18207 208.48498,393.71453 194.97277,388.65381 C 202.66539,419.04868 194.0843,451.12703 169.9985,470.66749 C 140.43448,494.65234 97.240358,491.88377 66.377745,466.38359 z "
         id="path4790" />
      <path
         id="path4792"
         d="M 208.77274,1159.0055 C 212.32167,1135.6414 206.78836,1111.6117 191.34744,1092.579 C 160.87302,1055.0159 103.3701,1051.165 62.937591,1083.9673 C 22.505038,1116.7696 14.373218,1173.869 44.847579,1211.4322 C 54.400364,1223.207 66.665512,1231.6746 80.177724,1236.7353 C 72.485106,1206.3404 81.066187,1174.2621 105.15197,1154.7216 C 134.71601,1130.7367 177.91013,1133.5053 208.77274,1159.0055 z "
         style="fill:url(#linearGradient64292);fill-opacity:1;stroke:black;stroke-width:1.91582155;stroke-linejoin:miter;stroke-miterlimit:4;stroke-dasharray:none;stroke-dashoffset:0;stroke-opacity:1" />
      <path
         style="fill:url(#linearGradient64294);fill-opacity:1;stroke:black;stroke-width:1.91582155;stroke-linejoin:miter;stroke-miterlimit:4;stroke-dasharray:none;stroke-dashoffset:0;stroke-opacity:1"
         d="M 1190.8608,1146.1981 C 1201.1001,1124.8994 1202.8508,1100.3031 1193.6646,1077.5813 C 1175.5345,1032.7374 1121.684,1012.2061 1073.4145,1031.7211 C 1025.1449,1051.2361 1000.6389,1103.4465 1018.7689,1148.2904 C 1024.4521,1162.3476 1033.6978,1174.0374 1045.134,1182.8353 C 1046.6853,1151.5205 1064.2893,1123.3645 1093.0436,1111.7394 C 1128.338,1097.4701 1168.8249,1112.7738 1190.8608,1146.1981 z "
         id="path4794" />
      <path
         style="fill:none;fill-opacity:1;stroke:black;stroke-width:1.91582155;stroke-linejoin:miter;stroke-miterlimit:4;stroke-dasharray:none;stroke-dashoffset:0;stroke-opacity:1"
         d="M 553.65989,595.39922 C 553.65991,627.70196 511.26078,653.95152 459.00633,653.95152 C 406.7519,653.95149 364.35277,627.70196 364.35277,595.39922 C 364.35277,580.93425 372.83971,567.71856 386.92354,557.50187 M 765.95686,541.6554 C 780.0407,551.8721 789.1862,565.74632 789.1862,580.21132 C 789.1862,612.51405 750.44271,632.59707 712.79281,632.59705 C 660.53837,632.59705 625.99021,618.60107 618.07938,587.51538 M 579.8827,439.3795 C 404.6343,439.3795 262.45501,521.53847 262.45501,622.75955 C 262.45501,699.65255 344.50304,765.51074 460.7677,792.72643 C 497.55251,801.33717 537.76246,789.18323 579.8827,789.18325 C 616.21788,789.18325 651.1341,802.55045 683.65774,796.05321 C 807.99896,771.2136 897.37029,702.9939 897.37026,622.75955 C 897.37026,521.53847 755.1311,439.37951 579.8827,439.3795 z "
         id="path19077"
         sodipodi:nodetypes="cssccssccsssssc" />
      <path
         id="path4769"
         d="M 576.88923,721.06514 C 497.55749,721.06514 433.20261,760.74271 433.20261,809.67188 C 433.20261,830.11445 444.44481,848.97297 463.31693,863.97345 C 490.0609,826.99183 532.16762,803.08625 579.52348,803.08625 C 625.72126,803.08622 666.87662,825.83425 693.69448,861.27933 C 710.62219,846.73818 720.63574,828.9261 720.63571,809.67188 C 720.63571,760.74271 656.22096,721.06514 576.88923,721.06514 z "
         style="fill:url(#linearGradient64296);fill-opacity:1;stroke:black;stroke-width:1.91582155;stroke-linejoin:miter;stroke-miterlimit:4;stroke-dasharray:none;stroke-dashoffset:0;stroke-opacity:1" />
    </g>
  </g>
</svg>
